<svg xmlns="http://www.w3.org/2000/svg" xmlns:xlink="http://www.w3.org/1999/xlink" version="1.1" x="0px" y="0px" viewBox="0 0 90 112.5" enable-background="new 0 0 90 90" xml:space="preserve"><path fill="#000000" d="M80.947,14.913c-1.842,0.152-3.731,0.234-5.657,0.234c-12.833,0-24.072-3.503-30.29-8.75v0h0v0  c-6.218,5.246-17.457,8.75-30.289,8.75c-1.927,0-3.815-0.082-5.658-0.234C8.585,25.409,8.787,43.32,14.825,56.258  C23.188,74.179,44.99,83.678,45,83.683h0c0.01-0.005,21.811-9.504,30.175-27.425C81.212,43.32,81.415,25.409,80.947,14.913z   M69.479,53.601C63.806,65.759,50.525,73.764,45,76.678c-5.559-2.93-18.808-10.923-24.48-23.077  c-2.569-5.505-5.426-15.412-5.346-32.171c11.499-0.07,22.23-2.753,29.826-7.344c7.595,4.591,18.327,7.274,29.826,7.344  C74.906,38.187,72.049,48.095,69.479,53.601z"/><path fill="#000000" d="M44.282,24.163c-0.597-0.597-1.512-0.651-2.042-0.12L23.652,42.629c-0.53,0.531-0.478,1.446,0.121,2.043  c0.597,0.597,1.511,0.65,2.042,0.12l18.587-18.586C44.934,25.675,44.879,24.76,44.282,24.163z"/><path fill="#000000" d="M43.288,33.47L33.079,43.677c-0.53,0.531-0.478,1.445,0.121,2.042c0.596,0.598,1.511,0.65,2.042,0.12  l10.208-10.206c0.532-0.532,0.478-1.447-0.119-2.043C44.732,32.993,43.818,32.939,43.288,33.47z"/><text x="0" y="105" fill="#000000" font-size="5px" font-weight="bold" font-family="'Helvetica Neue', Helvetica, Arial-Unicode, Arial, Sans-serif">Created by Кирилл Конюх</text><text x="0" y="110" fill="#000000" font-size="5px" font-weight="bold" font-family="'Helvetica Neue', Helvetica, Arial-Unicode, Arial, Sans-serif">from the Noun Project</text></svg>