<svg xmlns="http://www.w3.org/2000/svg" xmlns:xlink="http://www.w3.org/1999/xlink" version="1.1" x="0px" y="0px" viewBox="0 0 100 125" enable-background="new 0 0 100 100" xml:space="preserve"><path d="M50,17.5c-4.575,0-9.209,0.273-13.678,0.805L23.384,5.366c-0.488-0.488-1.279-0.488-1.768,0l-3.75,3.75  c-0.488,0.488-0.488,1.279,0,1.768l9.004,9.004C14.407,22.649,5,27.762,5,35c0,6.102,6.686,10.693,16.25,13.64V85  c0,7.894,18.072,10,28.75,10c10.679,0,28.75-2.106,28.75-10V48.64C88.314,45.693,95,41.102,95,35C95,23.633,71.814,17.5,50,17.5z   M22.5,8.018L44.482,30L42.5,31.982L20.518,10L22.5,8.018z M46.25,31.768l1.982,1.982l-1.982,1.982l-1.982-1.982L46.25,31.768z   M45.366,38.384c0.244,0.244,0.564,0.366,0.884,0.366s0.64-0.122,0.884-0.366l3.75-3.75c0.488-0.488,0.488-1.279,0-1.768  l-4.051-4.051C47.86,28.776,48.909,28.75,50,28.75c14.586,0,23.542,3.64,23.542,6.25S64.586,41.25,50,41.25  c-14.585,0-23.542-3.64-23.542-6.25c0-1.694,3.79-3.815,10.423-5.1L45.366,38.384z M73.759,84.929C73.269,86.373,65.48,90,50,90  c-15.481,0-23.269-3.627-23.75-5V49.976C33.504,51.643,41.847,52.5,50,52.5c8.153,0,16.497-0.857,23.751-2.524L73.759,84.929z   M50,47.5c-24.783,0-40-7.28-40-12.5c0-3.714,7.709-8.468,21.079-10.904l3.687,3.687C28.449,29.216,23.958,31.638,23.958,35  c0,5.745,13.101,8.75,26.042,8.75c12.941,0,26.042-3.005,26.042-8.75S62.941,26.25,50,26.25c-1.859,0-3.719,0.064-5.545,0.187  l-3.589-3.589C43.743,22.624,46.789,22.5,50,22.5c24.782,0,40,7.28,40,12.5S74.782,47.5,50,47.5z"/><text x="0" y="115" fill="#000000" font-size="5px" font-weight="bold" font-family="'Helvetica Neue', Helvetica, Arial-Unicode, Arial, Sans-serif">Created by Arthur Shlain</text><text x="0" y="120" fill="#000000" font-size="5px" font-weight="bold" font-family="'Helvetica Neue', Helvetica, Arial-Unicode, Arial, Sans-serif">from the Noun Project</text></svg>