<svg xmlns="http://www.w3.org/2000/svg" xmlns:xlink="http://www.w3.org/1999/xlink" version="1.1" x="0px" y="0px" viewBox="9.166 6.002 493.668 624.99125" enable-background="new 9.166 6.002 493.668 499.993" xml:space="preserve"><g><path d="M235.424,209.164l42.743,1.881l23.02,36.119c1.867,2.93,5.074,4.626,8.433,4.626c0.859,0,1.729-0.111,2.588-0.342   c4.215-1.129,7.211-4.861,7.402-9.221l1.88-42.811l36.083-23.021c3.678-2.346,5.41-6.806,4.28-11.02   c-1.13-4.213-4.861-7.208-9.22-7.4l-42.742-1.881l-23.019-36.137c-2.345-3.68-6.804-5.416-11.021-4.287   c-4.216,1.129-7.212,4.861-7.403,9.221l-1.879,42.796l-36.089,23.06c-3.675,2.348-5.405,6.808-4.273,11.02   C227.337,205.979,231.067,208.973,235.424,209.164z M281.716,181.744c2.744-1.754,4.463-4.734,4.605-7.988l0.716-16.311   l8.78,13.784c1.753,2.751,4.736,4.474,7.995,4.618l16.312,0.718l-13.776,8.789c-2.747,1.753-4.469,4.735-4.611,7.992l-0.718,16.343   l-8.782-13.779c-1.752-2.75-4.735-4.473-7.993-4.616l-16.347-0.719L281.716,181.744z"/><path d="M271.512,62.934c96.179,0,174.426,78.324,174.426,174.598c0,5.523,4.478,10,10,10s10-4.477,10-10   c0-107.302-87.219-194.598-194.426-194.598c-5.522,0-10,4.477-10,10S265.989,62.934,271.512,62.934z"/><path d="M472.971,485.995h-29.368c5.576-7.805,8.872-17.349,8.872-27.654v-37.615c0-5.522-4.478-10-10-10h-17.475   c49.183-43.685,77.835-106.516,77.835-173.194c0-61.839-24.06-119.978-67.746-163.708C391.396,30.088,333.305,6.002,271.512,6.002   c-62.567,0-122.532,25.537-165.997,70.347L79.267,35.14c-2.344-3.681-6.804-5.414-11.02-4.288   c-4.215,1.128-7.212,4.859-7.405,9.218l-2.346,53.027l-44.711,28.552c-3.676,2.348-5.406,6.807-4.276,11.02   s4.861,7.207,9.218,7.398l42.103,1.853c-13.528,29.863-20.64,62.606-20.64,95.611c0,66.68,28.651,129.51,77.834,173.194h-17.455   c-5.523,0-10,4.478-10,10v37.615c0,0.004,0,0.008,0,0.012c0,0.002,0,0.004,0,0.006c0,0.006,0.001,0.012,0.001,0.019   c0.008,10.292,3.3,19.822,8.867,27.617H70.053c-5.523,0-10,4.478-10,10s4.477,10,10,10h68.096h266.726h68.096   c5.522,0,10-4.478,10-10S478.493,485.995,472.971,485.995z M73.639,107.157c2.745-1.753,4.464-4.733,4.608-7.986l1.175-26.559   L93.694,95.02c1.752,2.751,4.736,4.475,7.995,4.618l4.43,0.195c0.007,0,0.014,0.002,0.021,0.002l22.124,0.973l-22.423,14.319   c-2.745,1.753-4.464,4.733-4.608,7.986l-1.175,26.583l-14.292-22.433c-0.221-0.347-0.463-0.678-0.721-0.991   c-0.079-0.096-0.17-0.18-0.253-0.272c-0.186-0.209-0.37-0.42-0.572-0.612c-0.119-0.113-0.251-0.211-0.375-0.318   c-0.18-0.154-0.354-0.315-0.544-0.456c-0.143-0.107-0.298-0.196-0.446-0.294c-0.184-0.122-0.364-0.251-0.556-0.361   c-0.161-0.092-0.331-0.166-0.496-0.248c-0.192-0.096-0.38-0.199-0.578-0.283c-0.173-0.073-0.353-0.128-0.531-0.191   c-0.201-0.072-0.398-0.15-0.603-0.209c-0.181-0.052-0.368-0.085-0.552-0.127c-0.21-0.047-0.417-0.102-0.63-0.136   c-0.187-0.03-0.378-0.04-0.567-0.06c-0.19-0.019-0.377-0.051-0.569-0.06l-26.558-1.169L73.639,107.157z M60.19,237.531   c0-29.353,6.137-58.477,17.857-85.159l22.166,34.793c0.003,0.005,0.007,0.009,0.01,0.014c0.205,0.321,0.431,0.621,0.667,0.911   c0.054,0.067,0.108,0.133,0.163,0.198c0.239,0.279,0.489,0.545,0.753,0.793c0.048,0.045,0.099,0.086,0.147,0.13   c0.241,0.217,0.491,0.421,0.75,0.612c0.059,0.044,0.116,0.089,0.175,0.131c0.29,0.204,0.59,0.391,0.898,0.563   c0.078,0.044,0.157,0.084,0.237,0.126c0.294,0.154,0.593,0.295,0.9,0.419c0.036,0.014,0.07,0.032,0.105,0.046   c0.329,0.128,0.667,0.232,1.008,0.325c0.094,0.026,0.188,0.051,0.282,0.073c0.339,0.082,0.682,0.15,1.029,0.196   c0.07,0.009,0.141,0.013,0.212,0.021c0.308,0.034,0.618,0.053,0.93,0.058c0.056,0.001,0.111,0.011,0.167,0.011   c0.029,0,0.058-0.005,0.086-0.006c0.366-0.003,0.733-0.028,1.1-0.072c0.083-0.01,0.165-0.023,0.248-0.035   c0.385-0.056,0.769-0.126,1.151-0.228c4.215-1.128,7.212-4.859,7.405-9.218l2.346-53.046l44.713-28.552   c0.23-0.147,0.452-0.302,0.666-0.464c3.215-2.44,4.67-6.606,3.61-10.556c-0.424-1.58-1.214-2.988-2.265-4.142   c-1.752-1.923-4.231-3.137-6.954-3.257l-31.161-1.371c38.688-35.079,89.305-54.844,141.92-54.844   c116.523,0,211.322,94.892,211.322,211.529c0,69.009-33.578,133.52-89.982,173.193h-242.68   C93.768,371.053,60.19,306.542,60.19,237.531z M138.149,485.995c-11.684,0-21.688-7.326-25.699-17.636h159.062   c5.522,0,10-4.478,10-10s-4.478-10-10-10H110.569v-17.634h321.906v27.615c0,15.249-12.381,27.654-27.6,27.654H138.149z"/></g><text x="9.166" y="520.995" fill="#000000" font-size="5px" font-weight="bold" font-family="'Helvetica Neue', Helvetica, Arial-Unicode, Arial, Sans-serif">Created by ibrandify</text><text x="9.166" y="525.995" fill="#000000" font-size="5px" font-weight="bold" font-family="'Helvetica Neue', Helvetica, Arial-Unicode, Arial, Sans-serif">from the Noun Project</text></svg>