<svg xmlns="http://www.w3.org/2000/svg" xmlns:xlink="http://www.w3.org/1999/xlink" xml:space="preserve" style="shape-rendering:geometricPrecision;text-rendering:geometricPrecision;image-rendering:optimizeQuality;" viewBox="0 0 102 213.75" x="0px" y="0px" fill-rule="evenodd" clip-rule="evenodd"><defs><style type="text/css">
   
    .fil0 {fill:black}
   
  </style></defs><g><path class="fil0" d="M30 170c-29,-16 -34,-45 -28,-71 1,11 5,21 11,29 -14,-60 44,-62 27,-129 16,11 21,28 16,51l9 -25c21,24 -11,67 17,87 9,-9 7,-24 6,-37 18,34 23,67 -15,95 11,-17 10,-32 1,-45 1,6 0,12 -5,18 -13,-15 3,-38 -9,-49 1,5 0,10 -5,14 2,-11 -1,-20 -9,-29 9,32 -23,42 -17,73 -4,-3 -6,-7 -5,-13 -3,11 -2,21 6,30z"/></g><text x="0" y="186" fill="#000000" font-size="5px" font-weight="bold" font-family="'Helvetica Neue', Helvetica, Arial-Unicode, Arial, Sans-serif">Created by Iga</text><text x="0" y="191" fill="#000000" font-size="5px" font-weight="bold" font-family="'Helvetica Neue', Helvetica, Arial-Unicode, Arial, Sans-serif">from the Noun Project</text></svg>