<svg xmlns="http://www.w3.org/2000/svg" xmlns:xlink="http://www.w3.org/1999/xlink" xmlns:sketch="http://www.bohemiancoding.com/sketch/ns" viewBox="0 0 100 125" version="1.1" x="0px" y="0px"><title>Oval 1 Copy</title><desc>Created with Sketch.</desc><g stroke="none" stroke-width="1" fill="none" fill-rule="evenodd" sketch:type="MSPage"><path d="M50.0873826,75.1800003 C76.9270182,75.1800003 95.3666002,50.0900002 95.3666002,50.0900002 C95.3666002,50.0900002 77.2543643,25 50.0873826,25 C22.9204009,25 5.36328125,51.1406439 5.36328125,51.1406439 C5.36328125,51.1406439 23.247747,75.1800003 50.0873826,75.1800003 Z M50.3649407,67.6530003 C60.0647179,67.6530003 67.9279408,59.7897773 67.9279408,50.0900002 C67.9279408,40.390223 60.0647179,32.527 50.3649407,32.527 C40.6651636,32.527 32.8019406,40.390223 32.8019406,50.0900002 C32.8019406,59.7897773 40.6651636,67.6530003 50.3649407,67.6530003 Z M50.3649407,57.6170002 C54.5219881,57.6170002 57.8919408,54.2470475 57.8919408,50.0900002 C57.8919408,45.9329528 54.5219881,42.5630001 50.3649407,42.5630001 C46.2078934,42.5630001 42.8379407,45.9329528 42.8379407,50.0900002 C42.8379407,54.2470475 46.2078934,57.6170002 50.3649407,57.6170002 Z" fill="#000000" sketch:type="MSShapeGroup"/></g><text x="0" y="115" fill="#000000" font-size="5px" font-weight="bold" font-family="'Helvetica Neue', Helvetica, Arial-Unicode, Arial, Sans-serif">Created by Tom Ingebretsen</text><text x="0" y="120" fill="#000000" font-size="5px" font-weight="bold" font-family="'Helvetica Neue', Helvetica, Arial-Unicode, Arial, Sans-serif">from the Noun Project</text></svg>