<svg xmlns="http://www.w3.org/2000/svg" xmlns:xlink="http://www.w3.org/1999/xlink" xml:space="preserve" version="1.1" style="shape-rendering:geometricPrecision;text-rendering:geometricPrecision;image-rendering:optimizeQuality;" viewBox="0 0 846.66 1058.325" x="0px" y="0px" fill-rule="evenodd" clip-rule="evenodd"><defs><style type="text/css">
   
    .fil0 {fill:black}
   
  </style></defs><g><path class="fil0" d="M182.71 510.95c-15.85,14.67 -32.95,40.95 -6.45,74.34 41.56,52.36 83.58,38.65 98.07,24.93 14.49,-13.72 27.42,-10.23 27.42,13.03 0,23.28 0,55.59 0,79.52 0,23.94 43.36,27.66 43.36,-3.72 0,-31.39 0,-37.82 0,-55.77 0,-17.95 9.94,-17.39 19.36,-17.39 15.29,0 58.87,0 58.87,0 0,0 43.57,0 58.86,0 9.42,0 19.37,-0.56 19.37,17.39 0,17.95 0,24.38 0,55.77 0,31.38 43.35,27.66 43.35,3.72 0,-23.93 0,-56.24 0,-79.52 0,-23.26 12.93,-26.75 27.43,-13.03 14.49,13.72 56.51,27.43 98.06,-24.93 26.5,-33.39 9.41,-59.67 -6.45,-74.34 37.82,-50.29 60.24,-112.83 60.24,-180.6 0,-166.16 -134.7,-300.86 -300.87,-300.86 -166.15,0 -300.86,134.7 -300.86,300.86 0,67.77 22.43,130.31 60.24,180.6zm343.94 -273.09l55.59 0c32.49,0 59.07,26.59 59.07,59.08l0 77.27c0,31.85 -26.05,57.91 -57.91,57.91l0 0c-63.71,0 -115.82,-52.12 -115.82,-115.83l0 -19.35c0,-32.49 26.58,-59.08 59.07,-59.08zm-206.63 0l-55.58 0c-32.49,0 -59.07,26.59 -59.07,59.08l0 77.27c0,31.85 26.05,57.91 57.9,57.91l0.01 0c63.7,0 115.82,-52.12 115.82,-115.83l0 -19.35c0,-32.49 -26.58,-59.08 -59.08,-59.08zm95.3 424.09l0 70.02 21.6 0 0 -54.65c0,-31.33 47.38,-31.32 47.38,0l0 54.65 58.66 0c61.09,40.16 -26.12,69.4 -58.52,85.19l-122.2 0c-32.41,-15.79 -119.62,-45.03 -58.52,-85.19l64.23 0 0 -70.02c0,-31.33 47.37,-31.32 47.37,0z"/></g><text x="0" y="861.66" fill="#000000" font-size="5px" font-weight="bold" font-family="'Helvetica Neue', Helvetica, Arial-Unicode, Arial, Sans-serif">Created by Fahmi</text><text x="0" y="866.66" fill="#000000" font-size="5px" font-weight="bold" font-family="'Helvetica Neue', Helvetica, Arial-Unicode, Arial, Sans-serif">from the Noun Project</text></svg>