<svg xmlns="http://www.w3.org/2000/svg" xmlns:xlink="http://www.w3.org/1999/xlink" version="1.1" x="0px" y="0px" viewBox="0 0 32 40" enable-background="new 0 0 32 32" xml:space="preserve"><g><rect fill="none" width="32" height="32"/></g><g><g><path d="M24,31H8c-3.859,0-7-3.141-7-7V8c0-3.86,3.141-7,7-7h16c3.859,0,7,3.14,7,7v16C31,27.859,27.859,31,24,31z M8,3    C5.243,3,3,5.243,3,8v16c0,2.757,2.243,5,5,5h16c2.757,0,5-2.243,5-5V8c0-2.757-2.243-5-5-5H8z"/></g><g><path d="M24.674,24H7.326L16,7.891L24.674,24z M10.674,22h10.652L16,12.109L10.674,22z"/></g></g><text x="0" y="47" fill="#000000" font-size="5px" font-weight="bold" font-family="'Helvetica Neue', Helvetica, Arial-Unicode, Arial, Sans-serif">Created by AmruID</text><text x="0" y="52" fill="#000000" font-size="5px" font-weight="bold" font-family="'Helvetica Neue', Helvetica, Arial-Unicode, Arial, Sans-serif">from the Noun Project</text></svg>